<?xml version="1.0" encoding="UTF-8"?>
<svg version="1.1" xmlns="http://www.w3.org/2000/svg" width="225" height="115">
<path d="M0 0 C1.30660357 4.29727397 0.6596762 7.60215865 0 12 C-0.71285156 11.77183594 -1.42570312 11.54367188 -2.16015625 11.30859375 C-7.91119358 9.58250852 -12.13043823 8.56521823 -18 10 C-18.33 11.65 -18.66 13.3 -19 15 C-14.82823004 17.67129684 -10.66339274 20.18322974 -6.25 22.4375 C-2.19413972 24.70710057 0.09758865 26.61618253 2 31 C2.63678075 35.60555378 2.59728361 39.55394495 0.8125 43.875 C-3.5236445 48.95875562 -7.18846091 50.79662074 -13.73828125 51.82421875 C-19.99808878 52.16157365 -28.32385058 51.83807471 -34 49 C-34 45.04 -34 41.08 -34 37 C-30 38 -30 38 -26.375 39.625 C-21.48198911 41.53604387 -17.07906039 40.86385658 -12 40 C-12.33 37.69 -12.66 35.38 -13 33 C-13.804375 32.773125 -14.60875 32.54625 -15.4375 32.3125 C-22.59333342 29.67614032 -28.92262015 26.62574226 -33 20 C-34.45448591 15.36974309 -34.48270665 11.28075965 -32.6875 6.75 C-25.95497919 -4.73894337 -10.99703521 -3.38370314 0 0 Z " fill="#F1F3F6" transform="translate(150,31)"/>
<path d="M0 0 C0.2226746 1.43534841 0.42761906 2.87345525 0.625 4.3125 C0.74101563 5.11300781 0.85703125 5.91351563 0.9765625 6.73828125 C1 9 1 9 -1 12 C-2.175625 11.505 -3.35125 11.01 -4.5625 10.5 C-8.5038711 9.02547996 -11.76325637 8.58463298 -16 9 C-16.99 9.66 -17.98 10.32 -19 11 C-19.07104139 13.38097614 -19.07104139 13.38097614 -18 16 C-15.54663917 17.56257481 -13.30586923 18.79491332 -10.6875 20 C-4.91921883 22.70028006 -0.96981731 25.06036538 2 31 C2.54644038 35.98066973 2.54204675 39.8958307 0.3125 44.4375 C-4.01018303 49.22750011 -8.07701417 50.82489025 -14.390625 51.203125 C-21.54381613 51.29000586 -27.45260215 51.20688874 -34 48 C-34 44.04 -34 40.08 -34 36 C-29 38 -29 38 -26.8125 39.125 C-22.57608506 40.44299576 -18.40231649 40.15386737 -14 40 C-13.34 38.68 -12.68 37.36 -12 36 C-15.95658477 31.56823716 -20.64656798 29.47858853 -25.90625 26.87890625 C-29.78142276 24.5254238 -32.2998447 22.16550765 -33.71484375 17.7890625 C-34.26941684 12.39900127 -33.83227183 8.81486211 -31 4 C-22.99709255 -4.00290745 -10.08358639 -3.75203215 0 0 Z " fill="#F1F2F6" transform="translate(106,31)"/>
<path d="M0 0 C0.79921875 0.01804687 1.5984375 0.03609375 2.421875 0.0546875 C3.02515625 0.07789062 3.6284375 0.10109375 4.25 0.125 C4.25 2.105 4.25 4.085 4.25 6.125 C3.69570313 6.27195312 3.14140625 6.41890625 2.5703125 6.5703125 C-2.15677235 7.98276029 -2.15677235 7.98276029 -5.25 11.625 C-5.69802154 14.76115079 -5.68767735 17.41580036 -5.5625 20.5625 C-5.41198872 26.36114514 -6.9464707 28.84602954 -10.75 33.125 C-9.76 33.455 -8.77 33.785 -7.75 34.125 C-4.72211697 39.18801753 -5.6772798 45.04043383 -5.91601562 50.70703125 C-5.93470703 51.48691406 -5.95339844 52.26679687 -5.97265625 53.0703125 C-6.00109619 53.77687988 -6.02953613 54.48344727 -6.05883789 55.21142578 C-5.64918003 57.7496853 -4.76927987 58.57989841 -2.75 60.125 C0.35839021 60.8519226 0.35839021 60.8519226 3.25 61.125 C3.25 63.105 3.25 65.085 3.25 67.125 C-6.57568807 67.70298165 -6.57568807 67.70298165 -10.75 64.125 C-15.31293717 58.80299478 -15.39792831 54.09808231 -15.5 47.25 C-15.52964844 46.27546875 -15.55929688 45.3009375 -15.58984375 44.296875 C-15.66015864 41.90616873 -15.71304234 39.51641566 -15.75 37.125 C-16.31589844 36.94324219 -16.88179687 36.76148438 -17.46484375 36.57421875 C-18.56505859 36.19716797 -18.56505859 36.19716797 -19.6875 35.8125 C-20.41839844 35.56886719 -21.14929688 35.32523438 -21.90234375 35.07421875 C-23.75 34.125 -23.75 34.125 -24.75 31.125 C-22.77579865 28.60240939 -21.78254358 28.1320192 -18.5625 27.4375 C-17.634375 27.334375 -16.70625 27.23125 -15.75 27.125 C-15.605625 26.031875 -15.46125 24.93875 -15.3125 23.8125 C-15.21582031 23.08675781 -15.11914062 22.36101563 -15.01953125 21.61328125 C-14.83029316 19.86625717 -14.70853466 18.11124398 -14.63671875 16.35546875 C-14.23990086 8.06764358 -14.23990086 8.06764358 -11.4375 4.5625 C-7.63653813 1.11511598 -5.14378927 -0.15128792 0 0 Z " fill="#39C797" transform="translate(40.75,23.875)"/>
<path d="M0 0 C10.93390623 -0.57323392 10.93390623 -0.57323392 15 3 C18.87996806 8.02783147 18.45643938 12.96306698 18.52734375 19.02539062 C18.58663971 21.02226922 18.78416841 23.01393433 19 25 C21.91765 26.9451 23.62537285 27.45276317 27 28 C28.125 31.75 28.125 31.75 27 34 C24.95475679 34.59505999 22.90666043 34.95466781 20.8125 35.33984375 C20.214375 35.55769531 19.61625 35.77554688 19 36 C18.08979464 38.73061607 17.8667239 40.42162721 17.82421875 43.23828125 C17.80037109 44.05876953 17.77652344 44.87925781 17.75195312 45.72460938 C17.70928237 47.43790468 17.67787084 49.15152063 17.65820312 50.86523438 C17.4740783 56.34187746 16.74853946 59.72069389 13 64 C10.07732518 66.04587237 7.77048135 66.22854357 4.25 66.125 C3.45078125 66.10695313 2.6515625 66.08890625 1.828125 66.0703125 C1.22484375 66.04710938 0.6215625 66.02390625 0 66 C0 64.02 0 62.04 0 60 C0.56589844 59.87882812 1.13179687 59.75765625 1.71484375 59.6328125 C2.81505859 59.38144531 2.81505859 59.38144531 3.9375 59.125 C4.66839844 58.96257812 5.39929688 58.80015625 6.15234375 58.6328125 C8.20700294 58.17038477 8.20700294 58.17038477 9 56 C9.23344836 52.24629865 9.39459245 48.49879655 9.51757812 44.74023438 C9.7080082 40.35315661 10.20046036 37.05807118 12 33 C12.22027271 29.13465204 12.22027271 29.13465204 11.01953125 26.19921875 C9.53634836 21.54509313 9.70392566 16.99893835 9.63671875 12.14453125 C9.3197511 8.83209465 9.3197511 8.83209465 6.6015625 7.1171875 C4.38325802 6.16458227 2.36867643 5.43864378 0 5 C0 3.35 0 1.7 0 0 Z " fill="#38CA99" transform="translate(179,27)"/>
<path d="M0 0 C10.93390623 -0.57323392 10.93390623 -0.57323392 15 3 C18.87996806 8.02783147 18.45643938 12.96306698 18.52734375 19.02539062 C18.58663971 21.02226922 18.78416841 23.01393433 19 25 C21.91765 26.9451 23.62537285 27.45276317 27 28 C28.125 31.75 28.125 31.75 27 34 C24.95475679 34.59505999 22.90666043 34.95466781 20.8125 35.33984375 C20.214375 35.55769531 19.61625 35.77554688 19 36 C18.08797314 38.73608059 17.84222015 40.54602233 17.75390625 43.37890625 C17.72103516 44.21744141 17.68816406 45.05597656 17.65429688 45.91992188 C17.59296798 47.68541125 17.53569324 49.451046 17.48242188 51.21679688 C17.44826172 52.05404297 17.41410156 52.89128906 17.37890625 53.75390625 C17.3538501 54.52033447 17.32879395 55.2867627 17.30297852 56.07641602 C17 58 17 58 15 60 C14.93548124 56.10243945 14.95970135 52.21027544 15 48.3125 C14.98066406 47.20970703 14.96132812 46.10691406 14.94140625 44.97070312 C15.08777415 36.89607386 15.08777415 36.89607386 17.84765625 34.18505859 C20.0625 32.85546875 20.0625 32.85546875 22.28515625 31.85620117 C22.85105469 31.57365479 23.41695312 31.2911084 24 31 C24 30.34 24 29.68 24 29 C22.8553125 28.9071875 22.8553125 28.9071875 21.6875 28.8125 C19 28 19 28 17.37109375 25.8671875 C15.77502709 22.52954383 15.53461698 19.99629183 15.375 16.3125 C15.30568579 11.99741828 15.30568579 11.99741828 14 8 C13.01 7.67 12.02 7.34 11 7 C11.33 7.99 11.66 8.98 12 10 C12.16219736 13.37010067 12.29624859 16.7338126 12.34179688 20.10742188 C12.48511856 23.70379617 12.65988097 25.60395317 15.04296875 28.37890625 C15.68878906 28.91386719 16.33460938 29.44882812 17 30 C17 30.66 17 31.32 17 32 C15.04072937 33.7143618 13.04119788 35.38405168 11 37 C11.165 36.4225 11.33 35.845 11.5 35.25 C12.24067226 31.91697484 12.14534081 29.41517674 11.01953125 26.19921875 C9.53634836 21.54509313 9.70392566 16.99893835 9.63671875 12.14453125 C9.3197511 8.83209465 9.3197511 8.83209465 6.6015625 7.1171875 C4.38325802 6.16458227 2.36867643 5.43864378 0 5 C0 3.35 0 1.7 0 0 Z " fill="#41B995" transform="translate(179,27)"/>
<path d="M0 0 C1.20194812 2.40389624 1.18703898 4.07014503 1.28125 6.75390625 C1.33732422 8.15866211 1.33732422 8.15866211 1.39453125 9.59179688 C1.46498226 11.57616696 1.53529422 13.56054199 1.60546875 15.54492188 C1.64285156 16.48013672 1.68023437 17.41535156 1.71875 18.37890625 C1.74904297 19.2407251 1.77933594 20.10254395 1.81054688 20.99047852 C1.78424884 22.99678717 1.78424884 22.99678717 3 24 C4.51469448 24.23192865 6.03754562 24.41215238 7.5625 24.5625 C8.38878906 24.64628906 9.21507812 24.73007813 10.06640625 24.81640625 C11.02353516 24.90728516 11.02353516 24.90728516 12 25 C12 26.98 12 28.96 12 31 C2.33333333 31.56862745 2.33333333 31.56862745 -2 28 C-4.88195818 24.83956439 -5.36368323 22.82099362 -5.29296875 18.578125 C-5.28330078 17.55332031 -5.27363281 16.52851562 -5.26367188 15.47265625 C-5.23853516 14.40917969 -5.21339844 13.34570312 -5.1875 12.25 C-5.17396484 11.17105469 -5.16042969 10.09210938 -5.14648438 8.98046875 C-5.11116584 6.3198058 -5.06184199 3.66015704 -5 1 C-2 0 -2 0 0 0 Z " fill="#38CB99" transform="translate(32,60)"/>
<path d="M0 0 C1.9375 0.375 1.9375 0.375 4 1 C5.80204558 4.60409116 5.41012164 8.85888879 5.62109375 12.8359375 C5.97418521 15.78443324 6.34244077 17.56545989 8 20 C9.65816784 20.68753301 11.32459336 21.35561283 13 22 C13.33 22.99 13.66 23.98 14 25 C12.02 25.66 10.04 26.32 8 27 C8 26.34 8 25.68 8 25 C7.34 25 6.68 25 6 25 C6 24.34 6 23.68 6 23 C5.360625 22.71125 4.72125 22.4225 4.0625 22.125 C2 21 2 21 1 19 C0.84932786 17.5534758 0.75138964 16.1012066 0.68359375 14.6484375 C0.62075195 13.37226562 0.62075195 13.37226562 0.55664062 12.0703125 C0.51732422 11.18085937 0.47800781 10.29140625 0.4375 9.375 C0.39431641 8.4778125 0.35113281 7.580625 0.30664062 6.65625 C0.20043139 4.43765717 0.09838806 2.2189512 0 0 Z " fill="#34D298" transform="translate(190,34)"/>
<path d="M0 0 C0.99 0.33 1.98 0.66 3 1 C2.01 2.485 2.01 2.485 1 4 C1.99 4.33 2.98 4.66 4 5 C7.01284329 10.04774728 6.07439224 15.84682382 5.83398438 21.49414062 C5.6768215 26.24944476 5.6768215 26.24944476 7.50390625 30.55859375 C7.99761719 31.03425781 8.49132813 31.50992188 9 32 C5.125 31.125 5.125 31.125 4 30 C3.84259395 28.29436222 3.74906608 26.58272756 3.68359375 24.87109375 C3.62075195 23.31938477 3.62075195 23.31938477 3.55664062 21.73632812 C3.51732422 20.64771484 3.47800781 19.55910156 3.4375 18.4375 C3.39431641 17.34501953 3.35113281 16.25253906 3.30664062 15.12695312 C3.20017932 12.41810436 3.09816484 9.70916008 3 7 C1.35 7.33 -0.3 7.66 -2 8 C-1.67 8.66 -1.34 9.32 -1 10 C-0.87561549 12.65835737 -0.81483812 15.27905229 -0.8125 17.9375 C-0.80025391 18.66646484 -0.78800781 19.39542969 -0.77539062 20.14648438 C-0.76487315 23.9713391 -0.82904376 25.74356564 -3 29 C-3 21.74 -3 14.48 -3 7 C-2.34 7 -1.68 7 -1 7 C-1.33 5.35 -1.66 3.7 -2 2 C-1.34 2 -0.68 2 0 2 C0 1.34 0 0.68 0 0 Z " fill="#3DB390" transform="translate(29,53)"/>
<path d="M0 0 C0.79921875 0.01804687 1.5984375 0.03609375 2.421875 0.0546875 C3.02515625 0.07789062 3.6284375 0.10109375 4.25 0.125 C4.29254356 2.12454746 4.29080783 4.12541636 4.25 6.125 C3.25 7.125 3.25 7.125 -0.3125 7.1875 C-1.446875 7.166875 -2.58125 7.14625 -3.75 7.125 C-3.42 6.135 -3.09 5.145 -2.75 4.125 C-5.39 5.115 -8.03 6.105 -10.75 7.125 C-11.41 11.745 -12.07 16.365 -12.75 21.125 C-14.75 19.125 -14.75 19.125 -14.90234375 16.734375 C-14.40894794 10.16772533 -13.68666541 6.60244072 -8.75 2.125 C-5.71881932 0.27085399 -3.5329333 -0.1039098 0 0 Z " fill="#37B38C" transform="translate(40.75,23.875)"/>
<path d="M0 0 C0.33 0 0.66 0 1 0 C1.03738281 1.13179687 1.07476562 2.26359375 1.11328125 3.4296875 C1.17893082 4.91149205 1.24537851 6.39326139 1.3125 7.875 C1.33505859 8.62136719 1.35761719 9.36773437 1.38085938 10.13671875 C1.47811945 12.099604 1.73042294 14.05328322 2 16 C4.91765 17.9451 6.62537285 18.45276317 10 19 C11.125 22.75 11.125 22.75 10 25 C7.95475679 25.59505999 5.90666043 25.95466781 3.8125 26.33984375 C3.214375 26.55769531 2.61625 26.77554688 2 27 C1.08797314 29.73608059 0.84222015 31.54602233 0.75390625 34.37890625 C0.72103516 35.21744141 0.68816406 36.05597656 0.65429688 36.91992188 C0.59296798 38.68541125 0.53569324 40.451046 0.48242188 42.21679688 C0.43118164 43.47266602 0.43118164 43.47266602 0.37890625 44.75390625 C0.3538501 45.52033447 0.32879395 46.2867627 0.30297852 47.07641602 C0 49 0 49 -2 51 C-2.06451876 47.10243945 -2.04029865 43.21027544 -2 39.3125 C-2.01933594 38.20970703 -2.03867188 37.10691406 -2.05859375 35.97070312 C-1.91222585 27.89607386 -1.91222585 27.89607386 0.84765625 25.18505859 C3.0625 23.85546875 3.0625 23.85546875 5.28515625 22.85620117 C5.85105469 22.57365479 6.41695312 22.2911084 7 22 C7 21.34 7 20.68 7 20 C6.21625 19.87625 5.4325 19.7525 4.625 19.625 C2 19 2 19 0 17 C-0.14517744 14.0906442 -0.18630796 11.280054 -0.125 8.375 C-0.11597656 7.57320312 -0.10695312 6.77140625 -0.09765625 5.9453125 C-0.07406223 3.96341477 -0.03819065 1.98167019 0 0 Z " fill="#43B590" transform="translate(196,36)"/>
<path d="M0 0 C0 0.99 0 1.98 0 3 C1.65 2.67 3.3 2.34 5 2 C1.22687008 5.94463583 1.22687008 5.94463583 -2.1640625 6.09765625 C-3.38222656 6.08025391 -3.38222656 6.08025391 -4.625 6.0625 C-5.85089844 6.04896484 -5.85089844 6.04896484 -7.1015625 6.03515625 C-8.04128906 6.01775391 -8.04128906 6.01775391 -9 6 C-9 4.02 -9 2.04 -9 0 C-3.375 -1.125 -3.375 -1.125 0 0 Z " fill="#40BF97" transform="translate(188,87)"/>
<path d="M0 0 C-0.33 1.65 -0.66 3.3 -1 5 C-1.66 5 -2.32 5 -3 5 C-3.99 6.485 -3.99 6.485 -5 8 C-6.32 8 -7.64 8 -9 8 C-9.3125 5.6875 -9.3125 5.6875 -9 3 C-5.72821183 0.36439287 -4.27931853 0 0 0 Z " fill="#34D19D" transform="translate(38,28)"/>
<path d="M0 0 C3.3 0 6.6 0 10 0 C9.67 1.65 9.34 3.3 9 5 C8.01 5.33 7.02 5.66 6 6 C5.67 4.68 5.34 3.36 5 2 C3.35 2 1.7 2 0 2 C0 1.34 0 0.68 0 0 Z " fill="#32D19C" transform="translate(181,29)"/>
<path d="M0 0 C0.66 0.33 1.32 0.66 2 1 C2 1.66 2 2.32 2 3 C1.34 3 0.68 3 0 3 C-0.0270043 4.45823212 -0.04639787 5.91660675 -0.0625 7.375 C-0.07410156 8.18710937 -0.08570312 8.99921875 -0.09765625 9.8359375 C-0.14466334 12.04937142 -0.14466334 12.04937142 1 14 C0.01 15.485 0.01 15.485 -1 17 C-3.54794407 12.35374905 -3.16608333 8.02168145 -2 3 C-1.34 2.01 -0.68 1.02 0 0 Z " fill="#E7E9F0" transform="translate(119,36)"/>
<path d="M0 0 C2.54563057 0.96558401 3.94635204 1.93868805 5.75 4 C7.55131741 8.32316179 7.24227996 12.37873401 7 17 C6.67 17 6.34 17 6 17 C5.67 14.36 5.34 11.72 5 9 C4.01 9 3.02 9 2 9 C2.04125 8.071875 2.0825 7.14375 2.125 6.1875 C2.27136339 2.84190281 2.27136339 2.84190281 0 0 Z " fill="#E8EAF1" transform="translate(145,55)"/>
<path d="M0 0 C1.98 0 3.96 0 6 0 C6.04254356 1.99954746 6.04080783 4.00041636 6 6 C5 7 5 7 1.4375 7.0625 C0.303125 7.041875 -0.83125 7.02125 -2 7 C1 5 1 5 4 5 C2.16343011 2.03268602 2.16343011 2.03268602 0 0 Z " fill="#46AB92" transform="translate(39,24)"/>
<path d="M0 0 C1.5 1.3125 1.5 1.3125 3 3 C3 3.99 3 4.98 3 6 C2.34 6 1.68 6 1 6 C1 6.66 1 7.32 1 8 C-0.32 7.67 -1.64 7.34 -3 7 C-2.01 4.69 -1.02 2.38 0 0 Z " fill="#37D29D" transform="translate(28,47)"/>
<path d="M0 0 C2.72407899 3.09064371 3.39214403 5.02026905 3.3125 9.125 C3.30863281 9.99382812 3.30476563 10.86265625 3.30078125 11.7578125 C3 14 3 14 1 16 C1.01160156 15.31292969 1.02320312 14.62585938 1.03515625 13.91796875 C1.04417969 13.01691406 1.05320312 12.11585937 1.0625 11.1875 C1.07410156 10.29417969 1.08570312 9.40085937 1.09765625 8.48046875 C1.11009967 5.86586209 1.11009967 5.86586209 0 3 C0 2.01 0 1.02 0 0 Z " fill="#E6EAF1" transform="translate(105,58)"/>
<path d="M0 0 C0.99 0.33 1.98 0.66 3 1 C2.01 1.495 2.01 1.495 1 2 C1 2.99 1 3.98 1 5 C1.66 5.66 2.32 6.32 3 7 C1.35 6.67 -0.3 6.34 -2 6 C-2.33 5.01 -2.66 4.02 -3 3 C-2.01 2.01 -1.02 1.02 0 0 Z " fill="#52B39B" transform="translate(19,52)"/>
</svg>
